<svg width="103.18" height="103.19" version="1.1" viewBox="0 0 103.18 103.19" xmlns="http://www.w3.org/2000/svg"><style type="text/css"><![CDATA[
	.st0{fill-rule:evenodd;clip-rule:evenodd;fill:#E5273A;}
	.st1{fill:#393939;}
]]></style><g transform="translate(-9.8443 -9.8424)" stroke-width=".88368"><path class="st1" d="m78.463 101.91c-8.2554 3.4874-17.19 4.2723-25.643 2.5983-8.4575-1.6813-16.406-5.8287-22.712-12.211l4.5624-3.0493c5.4029 5.1896 12.1 8.5787 19.197 9.9895 7.0847 1.4084 14.569 0.83841 21.551-1.8828zm10.087-55.358c-1.2343 0.82493-2.9013 0.49355-3.7262-0.74074-0.82493-1.2343-0.49355-2.9013 0.74074-3.7262l17.28-11.549c1.2343-0.82493 2.9013-0.49355 3.7262 0.74074s0.49355 2.9013-0.74074 3.7262zm-42-12.223c0.82493 1.2343 0.49355 2.9013-0.74074 3.7262-1.2343 0.82493-2.9013 0.49355-3.7262-0.74074l-11.554-17.287c-0.82493-1.2343-0.49355-2.9013 0.74073-3.7262 1.2343-0.82493 2.9013-0.49355 3.7262 0.74074zm45.798 68.525c0.82493 1.2343 0.49355 2.9013-0.74074 3.7262s-2.9013 0.49356-3.7262-0.74073l-11.554-17.287c-1.9641-2.9388 2.5028-5.9242 4.4669-2.9855zm-72.323-10.504c-1.2343 0.82493-2.9013 0.49355-3.7262-0.74074-0.82493-1.2343-0.49355-2.9013 0.74074-3.7262l17.28-11.549c1.2343-0.82493 2.9013-0.49355 3.7262 0.74074 0.82493 1.2343 0.49355 2.9013-0.74074 3.7262zm0.82694-13.902c-3.4874-8.2554-4.2723-17.19-2.5983-25.643 1.6813-8.4575 5.8238-16.413 12.211-22.712l3.0542 4.5698c-5.1896 5.4029-8.5787 12.1-9.9895 19.197-1.4084 7.0847-0.85068 14.567 1.8853 21.539zm23.457-57.618c8.2628-3.4923 17.198-4.2772 25.655-2.5959 8.4452 1.6788 16.418 5.8312 22.704 12.216l-4.5624 3.0493c-5.4029-5.1896-12.105-8.5861-19.197-9.9895-7.0896-1.4157-14.574-0.84576-21.551 1.8828zm57.623 23.464c3.4874 8.2554 4.2772 17.198 2.5959 25.655-1.6813 8.4575-5.8238 16.413-12.211 22.712l-3.0493-4.5624c10.372-10.801 13.566-26.806 8.1018-40.755z" fill="#393939" fill-opacity=".25955"/><path class="st0" d="m54.311 50.789c5.8775-3.9282 13.84-2.3518 17.773 3.5331 3.9332 5.8849 2.3518 13.84-3.5331 17.773-5.8849 3.9332-13.84 2.3518-17.773-3.5331-3.9258-5.8898-2.3444-13.845 3.5331-17.773z" fill="#e5273a" fill-opacity=".2479"/></g></svg>
